<svg xmlns="http://www.w3.org/2000/svg" version="1.1" xmlns:xlink="http://www.w3.org/1999/xlink" xmlns:svgjs="http://svgjs.dev/svgjs" width="1000" height="1000" viewBox="0 0 1000 1000"><rect width="1000" height="1000" fill="#161618"></rect><g transform="matrix(0.7,0,0,0.7,149.57575757575756,399.94133432429567)"><svg viewBox="0 0 396 113" data-background-color="#161618" preserveAspectRatio="xMidYMid meet" height="285" width="1000" xmlns="http://www.w3.org/2000/svg" xmlns:xlink="http://www.w3.org/1999/xlink"><g id="tight-bounds" transform="matrix(1,0,0,1,0.2400000000000091,0.17483318974731787)"><svg viewBox="0 0 395.52 112.65033362050536" height="112.65033362050536" width="395.52"><g><svg viewBox="0 0 651.8893082210549 185.66835572093015" height="112.65033362050536" width="395.52"><g transform="matrix(1,0,0,1,254.391708221055,57.288416348162414)"><svg viewBox="0 0 397.49759999999986 71.09152302460532" height="71.09152302460532" width="397.49759999999986"><g id="textblocktransform"><svg viewBox="0 0 397.49759999999986 71.09152302460532" height="71.09152302460532" width="397.49759999999986" id="textblock"><g><rect width="397.49759999999986" height="3.3379891228430436" x="0" y="40.94650111031082" fill="#ffffff" opacity="1" stroke-width="0" stroke="transparent" fill-opacity="1" class="rect-o-0" data-fill-palette-color="primary" rx="1%" id="o-0" data-palette-color="#ffffff"></rect></g><g transform="matrix(1,0,0,1,0.9887999999999693,0)"><svg viewBox="0 0 395.5199999999999 37.01431497083603" height="37.01431497083603" width="395.5199999999999"><g transform="matrix(1,0,0,1,0,0)"><svg width="395.5199999999999" viewBox="2.049999952316284 -35.5 385.7200012207031 36.099998474121094" height="37.01431497083603" data-palette-color="#ffffff"><path d="M15.8 0.6L15.8 0.6Q8.8 0.6 5.43-4.13 2.05-8.85 2.05-17.45L2.05-17.45Q2.05-26.05 5.43-30.78 8.8-35.5 15.8-35.5L15.8-35.5Q18.5-35.5 20.58-34.77 22.65-34.05 24.15-32.75 25.65-31.45 26.63-29.6 27.6-27.75 28.15-25.45L28.15-25.45 21.15-23.75Q20.85-25 20.45-26.05 20.05-27.1 19.43-27.85 18.8-28.6 17.88-29.03 16.95-29.45 15.65-29.45L15.65-29.45Q12.6-29.45 11.33-27.08 10.05-24.7 10.05-20.5L10.05-20.5 10.05-14.4Q10.05-10.2 11.33-7.83 12.6-5.45 15.65-5.45L15.65-5.45Q18.25-5.45 19.43-7.05 20.6-8.65 21.15-11.15L21.15-11.15 28.15-9.45Q27.6-7.15 26.63-5.3 25.65-3.45 24.15-2.13 22.65-0.8 20.58-0.1 18.5 0.6 15.8 0.6ZM45 0.6L45 0.6Q38 0.6 34.67-4.15 31.35-8.9 31.35-17.45L31.35-17.45Q31.35-26 34.67-30.75 38-35.5 45-35.5L45-35.5Q52-35.5 55.32-30.75 58.65-26 58.65-17.45L58.65-17.45Q58.65-8.9 55.32-4.15 52 0.6 45 0.6ZM45-5.45L45-5.45Q48.2-5.45 49.42-7.83 50.65-10.2 50.65-14.45L50.65-14.45 50.65-20.5Q50.65-24.7 49.42-27.08 48.2-29.45 45-29.45L45-29.45Q41.8-29.45 40.57-27.08 39.35-24.7 39.35-20.5L39.35-20.5 39.35-14.4Q39.35-10.2 40.57-7.83 41.8-5.45 45-5.45ZM63.2 0L63.2-34.9 74.45-34.9Q81.5-34.9 84.9-30.4 88.3-25.9 88.3-17.45L88.3-17.45Q88.3-9 84.9-4.5 81.5 0 74.45 0L74.45 0 63.2 0ZM70.59-5.9L73.95-5.9Q77.3-5.9 78.84-8.05 80.4-10.2 80.4-14.3L80.4-14.3 80.4-20.65Q80.4-24.7 78.84-26.85 77.3-29 73.95-29L73.95-29 70.59-29 70.59-5.9ZM116.29 0L93.99 0 93.99-34.9 116.29-34.9 116.29-28.75 101.49-28.75 101.49-20.75 115.79-20.75 115.79-14.6 101.49-14.6 101.49-6.15 116.29-6.15 116.29 0ZM165.79 0.6L165.79 0.6Q158.79 0.6 155.41-4.13 152.04-8.85 152.04-17.45L152.04-17.45Q152.04-26.05 155.41-30.78 158.79-35.5 165.79-35.5L165.79-35.5Q168.49-35.5 170.56-34.77 172.64-34.05 174.14-32.75 175.64-31.45 176.61-29.6 177.59-27.75 178.14-25.45L178.14-25.45 171.14-23.75Q170.84-25 170.44-26.05 170.04-27.1 169.41-27.85 168.79-28.6 167.86-29.03 166.94-29.45 165.64-29.45L165.64-29.45Q162.59-29.45 161.31-27.08 160.04-24.7 160.04-20.5L160.04-20.5 160.04-14.4Q160.04-10.2 161.31-7.83 162.59-5.45 165.64-5.45L165.64-5.45Q168.24-5.45 169.41-7.05 170.59-8.65 171.14-11.15L171.14-11.15 178.14-9.45Q177.59-7.15 176.61-5.3 175.64-3.45 174.14-2.13 172.64-0.8 170.56-0.1 168.49 0.6 165.79 0.6ZM194.99 0.6L194.99 0.6Q187.99 0.6 184.66-4.15 181.34-8.9 181.34-17.45L181.34-17.45Q181.34-26 184.66-30.75 187.99-35.5 194.99-35.5L194.99-35.5Q201.99-35.5 205.31-30.75 208.64-26 208.64-17.45L208.64-17.45Q208.64-8.9 205.31-4.15 201.99 0.6 194.99 0.6ZM194.99-5.45L194.99-5.45Q198.19-5.45 199.41-7.83 200.64-10.2 200.64-14.45L200.64-14.45 200.64-20.5Q200.64-24.7 199.41-27.08 198.19-29.45 194.99-29.45L194.99-29.45Q191.79-29.45 190.56-27.08 189.34-24.7 189.34-20.5L189.34-20.5 189.34-14.4Q189.34-10.2 190.56-7.83 191.79-5.45 194.99-5.45ZM231.53 0L231.53-15.55 231.93-25.3 231.48-25.3 224.98-7.35 218.48-25.3 218.03-25.3 218.43-15.55 218.43 0 211.93 0 211.93-34.9 220.78-34.9 225.08-23.15 225.48-23.15 229.78-34.9 238.03-34.9 238.03 0 231.53 0ZM251.18-12.95L251.18 0 243.78 0 243.78-34.9 257.28-34.9Q259.83-34.9 261.83-34.13 263.83-33.35 265.21-31.9 266.58-30.45 267.28-28.4 267.98-26.35 267.98-23.8L267.98-23.8Q267.98-20.1 266.38-17.45 264.78-14.8 261.83-13.95L261.83-13.95 268.68 0 260.48 0 254.63-12.95 251.18-12.95ZM251.18-18.75L255.48-18.75Q258.13-18.75 259.16-19.75 260.18-20.75 260.18-23.05L260.18-23.05 260.18-24.55Q260.18-26.85 259.16-27.85 258.13-28.85 255.48-28.85L255.48-28.85 251.18-28.85 251.18-18.75ZM299.73 0L291.73 0 289.53-8.4 279.98-8.4 277.83 0 270.23 0 279.68-34.9 290.28-34.9 299.73 0ZM288.38-14.45L284.98-27.65 284.58-27.65 281.18-14.45 288.38-14.45ZM303.18 0L303.18-34.9 314.43-34.9Q321.48-34.9 324.88-30.4 328.28-25.9 328.28-17.45L328.28-17.45Q328.28-9 324.88-4.5 321.48 0 314.43 0L314.43 0 303.18 0ZM310.58-5.9L313.93-5.9Q317.28-5.9 318.83-8.05 320.38-10.2 320.38-14.3L320.38-14.3 320.38-20.65Q320.38-24.7 318.83-26.85 317.28-29 313.93-29L313.93-29 310.58-29 310.58-5.9ZM356.27 0L333.97 0 333.97-34.9 356.27-34.9 356.27-28.75 341.47-28.75 341.47-20.75 355.77-20.75 355.77-14.6 341.47-14.6 341.47-6.15 356.27-6.15 356.27 0ZM374.42 0.6L374.42 0.6Q370.02 0.6 366.77-0.85 363.52-2.3 361.52-4.8L361.52-4.8 365.87-9.6Q367.77-7.5 370.05-6.5 372.32-5.5 374.67-5.5L374.67-5.5Q377.37-5.5 378.77-6.7 380.17-7.9 380.17-10.15L380.17-10.15Q380.17-12 379.1-12.95 378.02-13.9 375.47-14.3L375.47-14.3 371.82-14.9Q367.12-15.7 365.02-18.38 362.92-21.05 362.92-24.9L362.92-24.9Q362.92-29.95 366.22-32.73 369.52-35.5 375.47-35.5L375.47-35.5Q379.52-35.5 382.52-34.25 385.52-33 387.37-30.85L387.37-30.85 383.12-26.1Q381.72-27.65 379.82-28.53 377.92-29.4 375.52-29.4L375.52-29.4Q370.47-29.4 370.47-25.25L370.47-25.25Q370.47-23.45 371.6-22.55 372.72-21.65 375.27-21.2L375.27-21.2 378.92-20.55Q383.17-19.8 385.47-17.35 387.77-14.9 387.77-10.75L387.77-10.75Q387.77-8.3 386.92-6.23 386.07-4.15 384.37-2.63 382.67-1.1 380.2-0.25 377.72 0.6 374.42 0.6Z" opacity="1" transform="matrix(1,0,0,1,0,0)" fill="#ffffff" class="undefined-text-0" data-fill-palette-color="primary" id="text-0"></path></svg></g></svg></g><g transform="matrix(1,0,0,1,0,48.21667637262865)"><svg viewBox="0 0 168.75278721311938 22.874846651976668" height="22.874846651976668" width="168.75278721311938"><g transform="matrix(1,0,0,1,0,0)"><svg width="168.75278721311938" viewBox="1.75 -37.04999923706055 352.9700012207031 47.849998474121094" height="22.874846651976668" data-palette-color="#ffffff"><path d="M18.75 0.6L18.75 0.6Q14.4 0.6 11.23-0.88 8.05-2.35 5.93-4.93 3.8-7.5 2.78-10.85 1.75-14.2 1.75-17.95L1.75-17.95Q1.75-21.8 2.9-25.25 4.05-28.7 6.23-31.35 8.4-34 11.63-35.52 14.85-37.05 19-37.05L19-37.05Q20.8-37.05 22.93-36.65 25.05-36.25 27.05-35.43 29.05-34.6 30.3-33.3L30.3-33.3 27.3-29.65Q25.85-31.25 23.5-32.13 21.15-33 19.05-33L19.05-33Q16.15-33 14.05-31.75 11.95-30.5 10.58-28.35 9.2-26.2 8.53-23.55 7.85-20.9 7.85-18.15L7.85-18.15Q7.85-13.65 9.22-10.4 10.6-7.15 13.15-5.4 15.7-3.65 19.2-3.65L19.2-3.65Q21.3-3.65 23.7-4.23 26.1-4.8 28.7-6.15L28.7-6.15 30.45-2.95Q28.8-1.8 26.85-1.03 24.9-0.25 22.85 0.18 20.8 0.6 18.75 0.6ZM43.65 0.65L43.65 0.65Q39.95 0.65 37.4-1.15 34.85-2.95 33.52-5.88 32.2-8.8 32.2-12.25L32.2-12.25Q32.2-15.75 33.6-18.75 35-21.75 37.65-23.6 40.3-25.45 43.95-25.45L43.95-25.45Q47.7-25.45 50.25-23.7 52.8-21.95 54.1-19 55.4-16.05 55.4-12.55L55.4-12.55Q55.4-9.1 54.02-6.08 52.65-3.05 50.02-1.2 47.4 0.65 43.65 0.65ZM43.7-2.9L43.7-2.9Q45.55-2.9 46.8-3.8 48.05-4.7 48.77-6.15 49.5-7.6 49.8-9.25 50.1-10.9 50.1-12.4L50.1-12.4Q50.1-13.95 49.82-15.6 49.55-17.25 48.9-18.7 48.25-20.15 47.02-21.03 45.8-21.9 43.9-21.9L43.9-21.9Q42.05-21.9 40.82-21 39.6-20.1 38.87-18.65 38.15-17.2 37.85-15.53 37.55-13.85 37.55-12.4L37.55-12.4Q37.55-10.95 37.82-9.3 38.1-7.65 38.8-6.18 39.5-4.7 40.7-3.8 41.9-2.9 43.7-2.9ZM59.25-24.8L64.5-25.3Q65.5-23 65.7-20.4L65.7-20.4Q66.95-22.5 69.17-23.9 71.4-25.3 73.84-25.3L73.84-25.3 72.84-20.25Q70.55-20.25 68.84-19.05 67.15-17.85 65.75-15.8L65.75-15.8 65.75 0 60.84 0 60.84-18.05Q60.84-19.05 60.7-20.3 60.55-21.55 60.2-22.75 59.84-23.95 59.25-24.8L59.25-24.8ZM76.74-24.65L81.94-25.3Q82.24-24.55 82.47-23.7 82.69-22.85 82.79-22.05L82.79-22.05Q83.99-23.65 85.97-24.55 87.94-25.45 89.89-25.45L89.89-25.45Q92.59-25.45 94.57-24.38 96.54-23.3 97.84-21.43 99.14-19.55 99.77-17.28 100.39-15 100.39-12.6L100.39-12.6Q100.39-9.15 99.14-6.13 97.89-3.1 95.37-1.25 92.84 0.6 89.04 0.6L89.04 0.6Q87.54 0.6 85.89 0.1 84.24-0.4 83.09-1.4L83.09-1.4Q83.19-0.7 83.19 0.05 83.19 0.8 83.19 1.3L83.19 1.3 83.19 7.95 83.89 10.8 78.24 10.8 78.24-17.7Q78.24-18.7 78.12-20 77.99-21.3 77.67-22.55 77.34-23.8 76.74-24.65L76.74-24.65ZM88.49-21.5L88.49-21.5Q86.94-21.5 85.52-20.6 84.09-19.7 83.19-18.45L83.19-18.45 83.19-10.2Q83.19-8.35 83.72-6.75 84.24-5.15 85.49-4.15 86.74-3.15 88.79-3.15L88.79-3.15Q90.59-3.15 91.82-4 93.04-4.85 93.79-6.25 94.54-7.65 94.82-9.25 95.09-10.85 95.09-12.35L95.09-12.35Q95.09-13.9 94.77-15.5 94.44-17.1 93.67-18.48 92.89-19.85 91.62-20.68 90.34-21.5 88.49-21.5ZM115.54 0.65L115.54 0.65Q111.84 0.65 109.29-1.15 106.74-2.95 105.42-5.88 104.09-8.8 104.09-12.25L104.09-12.25Q104.09-15.75 105.49-18.75 106.89-21.75 109.54-23.6 112.19-25.45 115.84-25.45L115.84-25.45Q119.59-25.45 122.14-23.7 124.69-21.95 125.99-19 127.29-16.05 127.29-12.55L127.29-12.55Q127.29-9.1 125.92-6.08 124.54-3.05 121.92-1.2 119.29 0.65 115.54 0.65ZM115.59-2.9L115.59-2.9Q117.44-2.9 118.69-3.8 119.94-4.7 120.67-6.15 121.39-7.6 121.69-9.25 121.99-10.9 121.99-12.4L121.99-12.4Q121.99-13.95 121.72-15.6 121.44-17.25 120.79-18.7 120.14-20.15 118.92-21.03 117.69-21.9 115.79-21.9L115.79-21.9Q113.94-21.9 112.72-21 111.49-20.1 110.77-18.65 110.04-17.2 109.74-15.53 109.44-13.85 109.44-12.4L109.44-12.4Q109.44-10.95 109.72-9.3 109.99-7.65 110.69-6.18 111.39-4.7 112.59-3.8 113.79-2.9 115.59-2.9ZM131.14-24.8L136.39-25.3Q137.39-23 137.59-20.4L137.59-20.4Q138.84-22.5 141.06-23.9 143.29-25.3 145.74-25.3L145.74-25.3 144.74-20.25Q142.44-20.25 140.74-19.05 139.04-17.85 137.64-15.8L137.64-15.8 137.64 0 132.74 0 132.74-18.05Q132.74-19.05 132.59-20.3 132.44-21.55 132.09-22.75 131.74-23.95 131.14-24.8L131.14-24.8ZM158.29-25.45L158.29-25.45Q162.29-25.45 164.36-23.35 166.44-21.25 166.44-17.3L166.44-17.3 166.44-5.45Q166.44-4.25 166.86-3.83 167.29-3.4 167.89-3.4L167.89-3.4Q168.34-3.4 168.84-3.53 169.34-3.65 169.79-3.85L169.79-3.85 170.74-0.85Q169.79-0.3 168.49 0.08 167.19 0.45 165.99 0.45L165.99 0.45Q164.44 0.45 163.36-0.3 162.29-1.05 161.99-2.95L161.99-2.95Q160.54-1.25 158.61-0.35 156.69 0.55 154.49 0.55L154.49 0.55Q151.54 0.55 149.54-1.18 147.54-2.9 147.54-5.95L147.54-5.95Q147.54-8.7 148.86-10.43 150.19-12.15 152.34-13.03 154.49-13.9 156.91-14.23 159.34-14.55 161.49-14.55L161.49-14.55 161.49-17.45Q161.49-19.5 160.64-20.65 159.79-21.8 157.59-21.8L157.59-21.8Q155.79-21.8 154.04-20.98 152.29-20.15 150.74-18.9L150.74-18.9 148.54-22.25Q150.64-23.85 153.16-24.65 155.69-25.45 158.29-25.45ZM161.49-9.55L161.49-10.95Q160.29-10.95 158.76-10.83 157.24-10.7 155.84-10.28 154.44-9.85 153.54-8.9 152.64-7.95 152.64-6.3L152.64-6.3Q152.64-4.85 153.69-4.13 154.74-3.4 156.14-3.4L156.14-3.4Q157.79-3.4 158.96-4.33 160.14-5.25 160.81-6.65 161.49-8.05 161.49-9.55L161.49-9.55ZM177.18-32L180.73-32Q180.38-30.3 180.13-28.45 179.88-26.6 179.78-24.85L179.78-24.85 186.08-24.85 185.23-21.35 179.78-21.35 179.78-6.35Q179.78-5.6 179.96-4.83 180.13-4.05 180.66-3.6 181.18-3.15 182.23-3.15L182.23-3.15Q183.03-3.15 183.83-3.3 184.63-3.45 185.38-3.65L185.38-3.65 186.08-0.45Q184.83-0.05 183.51 0.25 182.18 0.55 180.73 0.55L180.73 0.55Q177.53 0.55 176.18-1.07 174.83-2.7 174.83-5.85L174.83-5.85 174.83-21.35 170.93-21.35 170.93-24.2Q172.98-24.25 174.23-25.53 175.48-26.8 176.18-28.6 176.88-30.4 177.18-32L177.18-32ZM199.63-25.5L199.63-25.5Q202.83-25.5 204.96-24.15 207.08-22.8 208.11-20.55 209.13-18.3 209.13-15.5L209.13-15.5Q209.13-14.75 209.06-13.95 208.98-13.15 208.83-12.35L208.83-12.35 193.28-12.35Q193.28-7.9 195.28-5.5 197.28-3.1 200.63-3.1L200.63-3.1Q202.08-3.1 203.68-3.58 205.28-4.05 207.03-5L207.03-5 208.63-2.15Q206.88-0.75 204.53-0.08 202.18 0.6 199.98 0.6L199.98 0.6Q196.08 0.6 193.43-1.15 190.78-2.9 189.41-5.8 188.03-8.7 188.03-12.2L188.03-12.2Q188.03-14.75 188.78-17.13 189.53-19.5 191.01-21.4 192.48-23.3 194.63-24.4 196.78-25.5 199.63-25.5ZM199.28-21.95L199.28-21.95Q197.63-21.95 196.41-21.03 195.18-20.1 194.46-18.68 193.73-17.25 193.53-15.8L193.53-15.8 203.98-15.8Q204.13-17.6 203.61-19 203.08-20.4 201.98-21.18 200.88-21.95 199.28-21.95ZM226.33-33.3L225.63-36.5 246.33-36.5 246.33-32.4 231.93-32.4 231.93-20.8 243.23-20.8 243.23-16.75 231.93-16.75 231.93 0 226.33 0 226.33-33.3ZM258.47 0.65L258.47 0.65Q254.77 0.65 252.22-1.15 249.67-2.95 248.35-5.88 247.02-8.8 247.02-12.25L247.02-12.25Q247.02-15.75 248.42-18.75 249.82-21.75 252.47-23.6 255.12-25.45 258.77-25.45L258.77-25.45Q262.52-25.45 265.07-23.7 267.62-21.95 268.92-19 270.22-16.05 270.22-12.55L270.22-12.55Q270.22-9.1 268.85-6.08 267.47-3.05 264.85-1.2 262.22 0.65 258.47 0.65ZM258.52-2.9L258.52-2.9Q260.37-2.9 261.62-3.8 262.87-4.7 263.6-6.15 264.32-7.6 264.62-9.25 264.92-10.9 264.92-12.4L264.92-12.4Q264.92-13.95 264.65-15.6 264.37-17.25 263.72-18.7 263.07-20.15 261.85-21.03 260.62-21.9 258.72-21.9L258.72-21.9Q256.87-21.9 255.65-21 254.42-20.1 253.7-18.65 252.97-17.2 252.67-15.53 252.37-13.85 252.37-12.4L252.37-12.4Q252.37-10.95 252.65-9.3 252.92-7.65 253.62-6.18 254.32-4.7 255.52-3.8 256.72-2.9 258.52-2.9ZM274.07-24.8L279.32-25.3Q280.32-23 280.52-20.4L280.52-20.4Q281.77-22.5 284-23.9 286.22-25.3 288.67-25.3L288.67-25.3 287.67-20.25Q285.37-20.25 283.67-19.05 281.97-17.85 280.57-15.8L280.57-15.8 280.57 0 275.67 0 275.67-18.05Q275.67-19.05 275.52-20.3 275.37-21.55 275.02-22.75 274.67-23.95 274.07-24.8L274.07-24.8ZM292.42-24.85L298.02-24.85 298.02-9.35Q298.02-8.05 298.24-6.68 298.47-5.3 299.27-4.4 300.07-3.5 301.77-3.5L301.77-3.5Q303.42-3.5 304.82-4.2 306.22-4.9 307.07-6.2 307.92-7.5 307.92-9.2L307.92-9.2 307.92-22Q307.92-22.05 307.77-22.7 307.62-23.35 307.49-24.05 307.37-24.75 307.32-24.85L307.32-24.85 312.92-24.85 312.92-5.5Q312.92-4.4 313.27-3.9 313.62-3.4 314.37-3.4L314.37-3.4Q315.07-3.4 316.27-3.85L316.27-3.85 317.22-0.85Q316.17-0.3 314.89 0.08 313.62 0.45 312.42 0.45L312.42 0.45Q311.02 0.45 309.89-0.3 308.77-1.05 308.42-2.95L308.42-2.95Q306.92-1.4 304.87-0.38 302.82 0.65 300.57 0.65L300.57 0.65Q297.77 0.65 296.12-0.48 294.47-1.6 293.74-3.58 293.02-5.55 293.02-8.15L293.02-8.15 293.02-22 292.42-24.85ZM319.27-24.7L324.57-25.3Q324.92-24.5 325.14-23.63 325.37-22.75 325.47-21.95L325.47-21.95Q327.02-23.3 328.87-24.38 330.72-25.45 332.92-25.45L332.92-25.45Q335.17-25.45 336.84-24.55 338.52-23.65 339.47-21.55L339.47-21.55Q341.07-23.1 343.09-24.28 345.12-25.45 347.37-25.45L347.37-25.45Q350.12-25.45 351.74-24.33 353.37-23.2 354.04-21.25 354.72-19.3 354.72-16.75L354.72-16.75 354.72 0 349.77 0 349.77-15.8Q349.77-17.2 349.54-18.48 349.32-19.75 348.52-20.55 347.72-21.35 346.02-21.35L346.02-21.35Q344.47-21.35 342.87-20.3 341.27-19.25 340.27-18.25L340.27-18.25 340.27 0 335.32 0 335.32-15.9Q335.32-17.25 335.07-18.48 334.82-19.7 334.02-20.53 333.22-21.35 331.57-21.35L331.57-21.35Q330.57-21.35 329.49-20.88 328.42-20.4 327.47-19.68 326.52-18.95 325.77-18.3L325.77-18.3 325.77 0 320.87 0 320.87-17.95Q320.87-18.95 320.72-20.2 320.57-21.45 320.22-22.65 319.87-23.85 319.27-24.7L319.27-24.7Z" opacity="1" transform="matrix(1,0,0,1,0,0)" fill="#ffffff" class="undefined-text-1" data-fill-palette-color="secondary" id="text-1"></path></svg></g></svg></g></svg></g></svg></g><g><svg viewBox="0 0 245.65351679999992 185.66835572093015" height="185.66835572093015" width="245.65351679999992"><g><svg xmlns="http://www.w3.org/2000/svg" xmlns:xlink="http://www.w3.org/1999/xlink" version="1.1" x="0" y="0" viewBox="6.5 18 86 65" enable-background="new 0 0 100 100" xml:space="preserve" height="185.66835572093015" width="245.65351679999992" class="icon-icon-0" data-fill-palette-color="accent" id="icon-0"><g fill="#ffffff" data-fill-palette-color="accent"><path d="M35.845 61.275l-10.72-5.09c-1.209-0.572-1.94-1.463-1.94-2.703v-0.318c0-1.24 0.731-2.131 1.94-2.704l10.72-5.089c0.381-0.191 0.731-0.318 1.177-0.318 1.018-0.031 1.94 0.859 1.94 2.004 0 0.922-0.509 1.559-1.336 1.94l-9.606 4.294 9.606 4.295c0.827 0.381 1.336 1.113 1.336 2.004 0 1.177-0.922 2.004-2.1 1.972C36.513 61.562 36.163 61.435 35.845 61.275z" fill="#ffffff" data-fill-palette-color="accent"></path><path d="M41.889 66.047l12.438-25.988c0.35-0.731 0.922-1.113 1.686-1.113 1.018 0 1.876 0.859 1.876 1.813 0 0.35-0.127 0.7-0.222 0.923L45.229 67.669c-0.35 0.731-0.922 1.113-1.686 1.113-1.018 0-1.876-0.858-1.876-1.813C41.667 66.619 41.793 66.27 41.889 66.047z" fill="#ffffff" data-fill-palette-color="accent"></path><path d="M64.155 45.371l10.72 5.089c1.208 0.573 1.94 1.464 1.94 2.704v0.318c0 1.24-0.731 2.131-1.94 2.703l-10.72 5.09c-0.381 0.191-0.731 0.318-1.177 0.318-1.018 0.031-1.94-0.859-1.94-2.004 0-0.923 0.509-1.559 1.336-1.94l9.606-4.295-9.606-4.294c-0.827-0.381-1.336-1.113-1.336-2.004 0-1.177 0.923-2.004 2.1-1.973C63.487 45.084 63.837 45.212 64.155 45.371z" fill="#ffffff" data-fill-palette-color="accent"></path></g><path d="M92.5 21c0-1.657-1.343-3-3-3h-80c-1.657 0-3 1.343-3 3v59c0 1.657 1.343 3 3 3h80c1.657 0 3-1.343 3-3V21zM26 20.833c1.196 0 2.167 0.97 2.167 2.167s-0.97 2.167-2.167 2.167-2.167-0.97-2.167-2.167S24.804 20.833 26 20.833zM20 20.833c1.196 0 2.167 0.97 2.167 2.167s-0.97 2.167-2.167 2.167-2.167-0.97-2.167-2.167S18.804 20.833 20 20.833zM14 20.833c1.196 0 2.167 0.97 2.167 2.167s-0.97 2.167-2.167 2.167-2.167-0.97-2.167-2.167S12.804 20.833 14 20.833zM88.5 79h-78V29h78V79z" fill="#ffffff" data-fill-palette-color="accent"></path></svg></g></svg></g></svg></g><defs></defs></svg><rect width="395.52" height="112.65033362050536" fill="none" stroke="none" visibility="hidden"></rect></g></svg></g></svg>